<svg version="1.1" xmlns="http://www.w3.org/2000/svg" style="display: block;" viewBox="0 0 2048 1858" width="604" height="548" preserveAspectRatio="none">
<path transform="translate(0,0)" fill="rgb(0,0,0)" d="M 1056.76 68.4941 L 1550.45 68.26 L 1706.31 68.294 C 1743.87 68.3426 1783.88 66.9444 1820.96 72.2885 C 1919.56 86.4975 2003.36 163.898 2026.98 259.945 C 2043.07 325.103 2032.45 393.992 1997.49 451.28 C 1965.36 503.648 1914.52 541.84 1855.27 558.113 C 1816.53 568.757 1786.76 566.145 1747.08 566.329 L 1635.67 566.369 L 1130.91 566.322 L 960.562 566.315 C 909.258 566.382 844.592 564.897 794.458 575.888 C 736.679 588.556 691.937 622.179 660.747 672.847 C 650.124 694.147 640.045 723.666 631.927 746.362 C 620.866 777.179 609.983 808.059 599.277 839 C 580.39 894.494 565.91 945.464 524.574 988.791 C 480.186 1036.21 418.513 1063.67 353.574 1064.92 C 335.71 1065.31 310.911 1065.43 293.17 1063.46 C 239.8 1057.4 189.887 1034.02 151.078 996.883 C 50.445 900.321 44.3362 744.134 140.613 641.821 C 175.991 604.226 230.556 576.896 281.857 570.436 C 318.923 565.769 360.065 569.193 397.501 568.203 C 439.414 567.883 481.605 566.682 523.513 566.316 C 554.243 566.049 603.697 552.232 631.22 539.598 C 679.985 517.213 723.694 476.615 746.717 427.869 C 755.685 408.88 764.035 381.971 771.066 361.37 L 803.605 265.618 C 820.563 215.708 833.532 178.84 872.489 140.416 C 923.753 89.8537 986.299 69.2545 1056.76 68.4941 z"/>
<path transform="translate(0,0)" fill="rgb(0,0,0)" d="M 1288.54 807.32 C 1369.86 800.362 1445.73 815.889 1507.32 872.378 C 1607 963.814 1617.36 1123.96 1524.59 1224.11 C 1487.2 1265.28 1436.76 1292.32 1381.78 1300.68 C 1348.81 1305.52 1305.16 1304.37 1271.31 1304.34 L 1144.07 1305.45 C 1138.65 1305.54 1132.67 1305.69 1127.29 1305.43 C 1093.57 1303.8 1061.82 1311.02 1030.28 1322.99 C 978.122 1342.78 933.253 1385.78 916.18 1439.61 C 912.905 1449.94 908.454 1461.08 904.749 1471.4 C 893.264 1503.27 881.944 1535.2 870.789 1567.19 C 850.463 1626.29 836.122 1679.84 792.442 1726.36 C 755.684 1765.51 695.084 1797.82 641.769 1800.13 C 638.795 1800.72 635.811 1801.27 632.819 1801.77 C 612.32 1805.12 591.294 1803.09 570.907 1801.32 C 467.382 1792.35 379.932 1721.06 350.578 1621.87 C 307.062 1474.84 403.742 1324.64 556.169 1306.44 C 577.547 1303.88 600.159 1305.8 621.63 1305.23 C 730.74 1302.4 848.764 1320.78 941.936 1250.81 C 1003.26 1204.76 1021.65 1153.85 1043.21 1084.04 C 1050.47 1060.52 1062.03 1036.07 1068.56 1012.36 C 1100.03 898.049 1165.58 825.671 1288.54 807.32 z"/>
</svg>